<svg width="250" height="250" viewBox="0 0 250 250" fill="none" xmlns="http://www.w3.org/2000/svg">
<g clip-path="url(#clip0_4865_3418)">
<path d="M33.9999 169.433H69.1779V177.076H33.9999V169.433Z" fill="#016197"/>
<path d="M42.6062 126.852V114.649C42.6062 108.874 45.2212 104.951 52.1944 104.951C59.1676 104.951 61.7826 108.874 61.7826 114.649V126.852H42.6062ZM34.1076 144.83C34.1076 155.725 40.645 161.391 54.9183 161.391C61.1288 161.391 65.0513 160.519 68.211 159.648V151.694C65.2692 152.674 60.693 153.655 55.3541 153.655C45.9839 153.655 42.6062 150.495 42.6062 144.394V133.934H70.0633V114.54C70.0633 104.843 64.8334 97.5424 52.1944 97.5424C39.5554 97.5424 34.1076 104.843 34.1076 114.54V144.83Z" fill="#016197"/>
<path d="M84.0547 102.454V177.081H92.6623V160.846H103.449C113.037 160.846 119.575 155.071 119.575 144.612V112.687C119.575 103.317 113.8 98.414 105.083 98.414C98.4965 98.135 90.5236 99.1246 84.0547 102.454ZM110.967 113.886V143.849C110.967 149.95 107.589 153.001 101.379 153.001H92.6623V107.69C97.9225 106.232 99.5061 106.191 103.34 106.368C108.02 106.584 110.967 108.656 110.967 113.886Z" fill="#016197"/>
<path d="M134.264 99.6126V107.566C137.206 106.477 142.981 105.387 148.429 105.387C157.254 105.387 159.324 108.329 159.433 113.668V122.82L144.506 126.961C135.245 129.576 131.213 134.37 131.213 142.215V145.701C131.213 155.289 135.681 160.628 146.358 160.628C153.441 160.628 156.6 158.449 159.542 155.834V160.301H167.714V113.777C167.714 103.535 162.593 97.5424 148.864 97.5424C142.872 97.5424 137.206 98.632 134.264 99.6126ZM159.324 149.842C156.818 151.912 152.787 153.764 148.102 153.764C141.782 153.764 139.712 151.04 139.712 145.81V142.542C139.712 137.747 141.346 135.35 147.666 133.498L159.324 130.229V149.842Z" fill="#016197"/>
<path d="M193.878 98.4143C185.175 99.0665 179.386 103.317 179.386 112.688V143.911C179.386 154.371 185.924 160.145 195.512 160.145C195.512 160.145 203.973 160.101 206.299 160.145C206.263 164.405 206.946 167.326 201.048 169.501C195.149 171.677 183.031 168.656 183.031 168.656L182.405 175.674C190.05 176.915 202.672 178.159 208.56 173.645C214.448 169.13 214.988 165.144 214.906 159.739L215 102.579C208.415 98.8144 202.58 97.7621 193.878 98.4143ZM195.621 106.368C199.579 105.931 202.936 106.275 206.299 107.69V152.3H197.582C191.371 152.3 187.994 149.25 187.994 143.148V113.886C187.994 108.656 189.41 107.053 195.621 106.368Z" fill="#016197"/>
</g>
<path d="M104.193 71.5546L66.6855 55.0106V49.6093L104.193 30.8745V39.9397L78.357 51.9133L104.193 62.5272V71.5546Z" fill="#6ACDF6"/>
<path d="M139.207 24L118.622 79.2223H108.159L128.745 24H139.207Z" fill="#6ACDF6"/>
<path d="M142.909 62.5272L168.745 51.9133L142.909 39.9397V30.8745L180.416 49.6093V55.0106L142.909 71.5546V62.5272Z" fill="#6ACDF6"/>
<path d="M43.3879 207.786H40.2023V218.513H36.5219V207.786H34.4947V206.012L36.5219 205.023V204.033C36.5219 202.883 36.715 201.99 37.1011 201.355C37.4953 200.711 38.0464 200.26 38.7543 200.003C39.4702 199.738 40.3149 199.605 41.2883 199.605C42.0042 199.605 42.6558 199.665 43.2431 199.786C43.8303 199.898 44.3089 200.027 44.679 200.172L43.7378 202.875C43.4562 202.786 43.1505 202.706 42.8207 202.634C42.4909 202.561 42.1128 202.525 41.6865 202.525C41.1716 202.525 40.7935 202.682 40.5522 202.996C40.3189 203.301 40.2023 203.695 40.2023 204.178V205.023H43.3879V207.786Z" fill="#6ACDF6"/>
<path d="M57.7713 211.744C57.7713 212.87 57.6185 213.868 57.3128 214.736C57.0151 215.605 56.5767 216.341 55.9975 216.945C55.4264 217.54 54.7345 217.99 53.922 218.296C53.1176 218.602 52.2086 218.755 51.195 218.755C50.2457 218.755 49.3729 218.602 48.5765 218.296C47.7882 217.99 47.1004 217.54 46.5131 216.945C45.9339 216.341 45.4834 215.605 45.1617 214.736C44.8479 213.868 44.6911 212.87 44.6911 211.744C44.6911 210.248 44.9565 208.981 45.4875 207.943C46.0184 206.905 46.7746 206.117 47.756 205.578C48.7374 205.039 49.9079 204.769 51.2674 204.769C52.5304 204.769 53.6485 205.039 54.6219 205.578C55.6033 206.117 56.3716 206.905 56.9266 207.943C57.4898 208.981 57.7713 210.248 57.7713 211.744ZM48.4438 211.744C48.4438 212.629 48.5403 213.373 48.7334 213.976C48.9265 214.58 49.2281 215.034 49.6384 215.34C50.0487 215.645 50.5836 215.798 51.2432 215.798C51.8948 215.798 52.4218 215.645 52.824 215.34C53.2342 215.034 53.5319 214.58 53.7169 213.976C53.91 213.373 54.0065 212.629 54.0065 211.744C54.0065 210.851 53.91 210.111 53.7169 209.524C53.5319 208.928 53.2342 208.482 52.824 208.184C52.4137 207.887 51.8788 207.738 51.2191 207.738C50.2457 207.738 49.5378 208.072 49.0954 208.739C48.661 209.407 48.4438 210.409 48.4438 211.744Z" fill="#6ACDF6"/>
<path d="M68.3417 204.769C68.5267 204.769 68.7399 204.781 68.9812 204.806C69.2306 204.822 69.4317 204.846 69.5846 204.878L69.307 208.329C69.1864 208.289 69.0134 208.261 68.7882 208.245C68.571 208.22 68.3819 208.208 68.221 208.208C67.7464 208.208 67.2839 208.269 66.8334 208.389C66.3909 208.51 65.9927 208.707 65.6388 208.981C65.2848 209.246 65.0033 209.6 64.7941 210.043C64.593 210.477 64.4924 211.012 64.4924 211.647V218.513H60.8121V205.023H63.5995L64.1425 207.291H64.3235C64.589 206.833 64.9188 206.414 65.313 206.036C65.7152 205.65 66.1697 205.345 66.6765 205.119C67.1913 204.886 67.7464 204.769 68.3417 204.769Z" fill="#6ACDF6"/>
<path d="M82.7251 218.755C81.2208 218.755 79.9941 218.167 79.0448 216.993C78.1036 215.81 77.633 214.077 77.633 211.792C77.633 209.483 78.1117 207.738 79.069 206.555C80.0262 205.365 81.2771 204.769 82.8217 204.769C83.4652 204.769 84.0324 204.858 84.5231 205.035C85.0138 205.212 85.4361 205.449 85.7901 205.747C86.1521 206.044 86.4578 206.378 86.7071 206.748H86.8278C86.7795 206.491 86.7192 206.113 86.6468 205.614C86.5825 205.107 86.5503 204.588 86.5503 204.057V199.738H90.2427V218.513H87.4191L86.7071 216.764H86.5503C86.317 217.134 86.0234 217.472 85.6694 217.777C85.3235 218.075 84.9092 218.312 84.4265 218.489C83.9439 218.666 83.3767 218.755 82.7251 218.755ZM84.0163 215.822C85.0218 215.822 85.7297 215.525 86.14 214.93C86.5583 214.326 86.7795 213.421 86.8037 212.215V211.816C86.8037 210.505 86.6026 209.504 86.2003 208.812C85.7981 208.112 85.05 207.762 83.9559 207.762C83.1435 207.762 82.5079 208.112 82.0494 208.812C81.5909 209.512 81.3616 210.521 81.3616 211.84C81.3616 213.16 81.5909 214.153 82.0494 214.821C82.516 215.489 83.1716 215.822 84.0163 215.822Z" fill="#6ACDF6"/>
<path d="M99.6547 204.769C100.902 204.769 101.975 205.011 102.876 205.493C103.777 205.968 104.473 206.66 104.964 207.569C105.455 208.478 105.7 209.588 105.7 210.899V212.685H97C97.0402 213.723 97.3499 214.539 97.9291 215.135C98.5164 215.722 99.3289 216.016 100.367 216.016C101.227 216.016 102.016 215.927 102.732 215.75C103.448 215.573 104.184 215.308 104.94 214.954V217.801C104.272 218.131 103.572 218.373 102.84 218.525C102.116 218.678 101.235 218.755 100.198 218.755C98.8462 218.755 97.6476 218.505 96.6018 218.007C95.5641 217.508 94.7476 216.748 94.1523 215.726C93.565 214.704 93.2714 213.417 93.2714 211.865C93.2714 210.288 93.5369 208.977 94.0678 207.931C94.6068 206.877 95.3549 206.089 96.3122 205.566C97.2695 205.035 98.3836 204.769 99.6547 204.769ZM99.6788 207.388C98.9628 207.388 98.3675 207.617 97.8929 208.076C97.4263 208.534 97.1569 209.254 97.0845 210.236H102.249C102.241 209.689 102.14 209.202 101.947 208.776C101.762 208.349 101.481 208.011 101.103 207.762C100.733 207.513 100.258 207.388 99.6788 207.388Z" fill="#6ACDF6"/>
<path d="M111.902 218.513L106.762 205.023H110.611L113.218 212.709C113.362 213.16 113.475 213.634 113.555 214.133C113.644 214.632 113.704 215.078 113.736 215.473H113.833C113.857 215.046 113.913 214.592 114.002 214.109C114.098 213.626 114.223 213.16 114.376 212.709L116.97 205.023H120.82L115.679 218.513H111.902Z" fill="#6ACDF6"/>
<path d="M128.325 204.769C129.572 204.769 130.646 205.011 131.547 205.493C132.448 205.968 133.144 206.66 133.634 207.569C134.125 208.478 134.37 209.588 134.37 210.899V212.685H125.67C125.711 213.723 126.02 214.539 126.599 215.135C127.187 215.722 127.999 216.016 129.037 216.016C129.898 216.016 130.686 215.927 131.402 215.75C132.118 215.573 132.854 215.308 133.61 214.954V217.801C132.943 218.131 132.243 218.373 131.511 218.525C130.787 218.678 129.906 218.755 128.868 218.755C127.517 218.755 126.318 218.505 125.272 218.007C124.234 217.508 123.418 216.748 122.823 215.726C122.235 214.704 121.942 213.417 121.942 211.865C121.942 210.288 122.207 208.977 122.738 207.931C123.277 206.877 124.025 206.089 124.983 205.566C125.94 205.035 127.054 204.769 128.325 204.769ZM128.349 207.388C127.633 207.388 127.038 207.617 126.563 208.076C126.097 208.534 125.827 209.254 125.755 210.236H130.919C130.911 209.689 130.811 209.202 130.618 208.776C130.433 208.349 130.151 208.011 129.773 207.762C129.403 207.513 128.928 207.388 128.349 207.388Z" fill="#6ACDF6"/>
<path d="M141.043 218.513H137.363V199.738H141.043V218.513Z" fill="#6ACDF6"/>
<path d="M157.176 211.744C157.176 212.87 157.024 213.868 156.718 214.736C156.42 215.605 155.982 216.341 155.403 216.945C154.831 217.54 154.14 217.99 153.327 218.296C152.523 218.602 151.614 218.755 150.6 218.755C149.651 218.755 148.778 218.602 147.982 218.296C147.193 217.99 146.505 217.54 145.918 216.945C145.339 216.341 144.889 215.605 144.567 214.736C144.253 213.868 144.096 212.87 144.096 211.744C144.096 210.248 144.362 208.981 144.893 207.943C145.423 206.905 146.18 206.117 147.161 205.578C148.142 205.039 149.313 204.769 150.672 204.769C151.935 204.769 153.054 205.039 154.027 205.578C155.008 206.117 155.777 206.905 156.332 207.943C156.895 208.981 157.176 210.248 157.176 211.744ZM147.849 211.744C147.849 212.629 147.945 213.373 148.138 213.976C148.332 214.58 148.633 215.034 149.043 215.34C149.454 215.645 149.989 215.798 150.648 215.798C151.3 215.798 151.827 215.645 152.229 215.34C152.639 215.034 152.937 214.58 153.122 213.976C153.315 213.373 153.412 212.629 153.412 211.744C153.412 210.851 153.315 210.111 153.122 209.524C152.937 208.928 152.639 208.482 152.229 208.184C151.819 207.887 151.284 207.738 150.624 207.738C149.651 207.738 148.943 208.072 148.5 208.739C148.066 209.407 147.849 210.409 147.849 211.744Z" fill="#6ACDF6"/>
<path d="M167.723 204.769C169.243 204.769 170.47 205.361 171.403 206.543C172.344 207.726 172.815 209.459 172.815 211.744C172.815 213.272 172.594 214.559 172.151 215.605C171.709 216.643 171.097 217.427 170.317 217.958C169.537 218.489 168.64 218.755 167.626 218.755C166.974 218.755 166.415 218.674 165.949 218.513C165.482 218.344 165.084 218.131 164.754 217.874C164.424 217.608 164.139 217.327 163.898 217.029H163.704C163.769 217.351 163.817 217.681 163.849 218.019C163.881 218.356 163.898 218.686 163.898 219.008V224.45H160.217V205.023H163.21L163.729 206.772H163.898C164.139 206.41 164.432 206.077 164.778 205.771C165.124 205.465 165.539 205.224 166.021 205.047C166.512 204.862 167.079 204.769 167.723 204.769ZM166.54 207.714C165.897 207.714 165.386 207.846 165.008 208.112C164.63 208.377 164.352 208.776 164.175 209.306C164.006 209.837 163.914 210.509 163.898 211.322V211.72C163.898 212.589 163.978 213.325 164.139 213.928C164.308 214.531 164.585 214.99 164.971 215.304C165.366 215.617 165.905 215.774 166.588 215.774C167.151 215.774 167.614 215.617 167.976 215.304C168.338 214.99 168.608 214.531 168.785 213.928C168.97 213.317 169.062 212.572 169.062 211.696C169.062 210.376 168.857 209.383 168.447 208.715C168.036 208.047 167.401 207.714 166.54 207.714Z" fill="#6ACDF6"/>
<path d="M181.418 204.769C182.665 204.769 183.739 205.011 184.64 205.493C185.541 205.968 186.237 206.66 186.728 207.569C187.218 208.478 187.464 209.588 187.464 210.899V212.685H178.764C178.804 213.723 179.114 214.539 179.693 215.135C180.28 215.722 181.092 216.016 182.13 216.016C182.991 216.016 183.779 215.927 184.495 215.75C185.211 215.573 185.947 215.308 186.703 214.954V217.801C186.036 218.131 185.336 218.373 184.604 218.525C183.88 218.678 182.999 218.755 181.961 218.755C180.61 218.755 179.411 218.505 178.365 218.007C177.328 217.508 176.511 216.748 175.916 215.726C175.329 214.704 175.035 213.417 175.035 211.865C175.035 210.288 175.301 208.977 175.831 207.931C176.37 206.877 177.119 206.089 178.076 205.566C179.033 205.035 180.147 204.769 181.418 204.769ZM181.442 207.388C180.726 207.388 180.131 207.617 179.657 208.076C179.19 208.534 178.92 209.254 178.848 210.236H184.013C184.005 209.689 183.904 209.202 183.711 208.776C183.526 208.349 183.244 208.011 182.866 207.762C182.496 207.513 182.022 207.388 181.442 207.388Z" fill="#6ACDF6"/>
<path d="M197.986 204.769C198.171 204.769 198.384 204.781 198.625 204.806C198.875 204.822 199.076 204.846 199.229 204.878L198.951 208.329C198.83 208.289 198.658 208.261 198.432 208.245C198.215 208.22 198.026 208.208 197.865 208.208C197.391 208.208 196.928 208.269 196.477 208.389C196.035 208.51 195.637 208.707 195.283 208.981C194.929 209.246 194.647 209.6 194.438 210.043C194.237 210.477 194.137 211.012 194.137 211.647V218.513H190.456V205.023H193.244L193.787 207.291H193.968C194.233 206.833 194.563 206.414 194.957 206.036C195.359 205.65 195.814 205.345 196.321 205.119C196.835 204.886 197.391 204.769 197.986 204.769Z" fill="#6ACDF6"/>
<path d="M211.09 214.507C211.09 215.424 210.873 216.201 210.439 216.836C210.012 217.464 209.373 217.942 208.52 218.272C207.667 218.594 206.605 218.755 205.334 218.755C204.393 218.755 203.585 218.694 202.909 218.574C202.241 218.453 201.566 218.252 200.882 217.97V214.93C201.614 215.259 202.398 215.533 203.235 215.75C204.079 215.959 204.82 216.064 205.455 216.064C206.171 216.064 206.682 215.959 206.988 215.75C207.301 215.533 207.458 215.251 207.458 214.905C207.458 214.68 207.394 214.479 207.265 214.302C207.144 214.117 206.879 213.912 206.469 213.687C206.058 213.453 205.415 213.152 204.538 212.782C203.693 212.428 202.997 212.07 202.45 211.708C201.911 211.346 201.509 210.919 201.244 210.429C200.986 209.93 200.858 209.298 200.858 208.534C200.858 207.287 201.34 206.35 202.306 205.723C203.279 205.087 204.578 204.769 206.203 204.769C207.04 204.769 207.836 204.854 208.592 205.023C209.357 205.192 210.141 205.461 210.945 205.831L209.835 208.486C209.168 208.196 208.536 207.959 207.941 207.774C207.354 207.589 206.754 207.496 206.143 207.496C205.604 207.496 205.198 207.569 204.924 207.714C204.651 207.858 204.514 208.08 204.514 208.377C204.514 208.595 204.582 208.788 204.719 208.957C204.864 209.125 205.137 209.314 205.54 209.524C205.95 209.725 206.549 209.986 207.337 210.308C208.102 210.622 208.765 210.952 209.328 211.297C209.892 211.635 210.326 212.058 210.632 212.564C210.937 213.063 211.09 213.711 211.09 214.507Z" fill="#6ACDF6"/>
<defs>
<clipPath id="clip0_4865_3418">
<rect width="181" height="79.5383" fill="white" transform="translate(34 97.5424)"/>
</clipPath>
</defs>
</svg>
