<svg width="64" height="64" viewBox="0 0 64 64" fill="none" xmlns="http://www.w3.org/2000/svg">
<path d="M28.8909 54.9847H43.6046C45.7116 54.9847 50.7413 54.9082 50.7413 54.9082C51.4123 53.2497 53.7171 43.5676 42.5937 43.5676H30.9772" fill="url(#paint0_linear_2373_39)"/>
<path d="M25.1978 8.00125C25.1978 8.00125 24.0805 13.0294 23.6481 15.1435L17.3554 45.908C16.5415 49.8874 20.078 54.9884 27.8413 54.9884C28.2902 54.9884 28.5614 54.9891 28.7336 54.9902L28.7346 54.9846L31.7046 54.9809C33.6624 54.9788 34.6585 54.9692 34.5252 54.9539C33.343 54.8182 32.2337 54.3086 31.4156 53.5253C31.1366 53.2582 30.717 52.7141 30.5319 52.3795C30.0457 51.5005 29.8181 50.4394 29.8812 49.3572C30.0122 48.7148 30.1104 48.2297 30.1971 47.8056L35.8111 19.7661C36.9266 13.0838 31.0155 7.90321 25.1978 8.00125ZM28.7336 54.9902L28.7317 54.9999C28.7317 54.9999 29.2725 54.9934 28.7336 54.9902Z" fill="url(#paint1_linear_2373_39)"/>
<defs>
<linearGradient id="paint0_linear_2373_39" x1="22.2018" y1="49.4614" x2="55.1989" y2="44.5465" gradientUnits="userSpaceOnUse">
<stop stop-color="#AA0000"/>
<stop offset="1" stop-color="#FFCC00"/>
</linearGradient>
<linearGradient id="paint1_linear_2373_39" x1="33.3408" y1="4.81012" x2="33.4628" y2="64.3976" gradientUnits="userSpaceOnUse">
<stop stop-color="#FF0000"/>
<stop offset="1" stop-color="#FFCC00"/>
</linearGradient>
</defs>
</svg>
