<svg width="183" height="48" viewBox="0 0 183 48" fill="none" xmlns="http://www.w3.org/2000/svg">
<g clip-path="url(#clip0_4849_46713)">
<path d="M0 43.3845H21.2293V47.9972H0V43.3845Z" fill="#016197"/>
<path d="M5.19371 17.6877V10.3233C5.19371 6.83836 6.77179 4.47123 10.98 4.47123C15.1882 4.47123 16.7663 6.83836 16.7663 10.3233V17.6877H5.19371ZM0.0649414 28.537C0.0649414 35.1123 4.01014 38.5315 12.6238 38.5315C16.3718 38.5315 18.7389 38.0055 20.6458 37.4795V32.6795C18.8704 33.2713 16.1088 33.863 12.8869 33.863C7.23206 33.863 5.19371 31.9562 5.19371 28.274V21.9617H21.7636V10.2575C21.7636 4.40548 18.6074 0 10.98 0C3.35261 0 0.0649414 4.40548 0.0649414 10.2575V28.537Z" fill="#016197"/>
<path d="M30.2072 2.96414V48H35.4017V38.2027H41.9113C47.6976 38.2027 51.6428 34.7178 51.6428 28.4055V9.13969C51.6428 3.4849 48.1579 0.525997 42.8976 0.525997C38.9225 0.357601 34.111 0.954838 30.2072 2.96414ZM46.4483 9.86299V27.9452C46.4483 31.6274 44.4099 33.4685 40.662 33.4685H35.4017V6.12379C38.5761 5.24432 39.5318 5.21917 41.8455 5.326C44.6699 5.45641 46.4483 6.70682 46.4483 9.86299Z" fill="#016197"/>
<path d="M60.5077 1.24932V6.04933C62.2831 5.39179 65.768 4.73425 69.0557 4.73425C74.3817 4.73425 75.631 6.5096 75.6968 9.73152V15.2548L66.6886 17.7534C61.0995 19.3315 58.6666 22.2247 58.6666 26.9589V29.063C58.6666 34.8493 61.3625 38.0713 67.8064 38.0713C72.0803 38.0713 73.9872 36.7562 75.7625 35.1781V37.874H80.694V9.79727C80.694 3.61644 77.6036 0 69.3187 0C65.7023 0 62.2831 0.657535 60.5077 1.24932ZM75.631 31.5617C74.1187 32.811 71.6858 33.9288 68.8584 33.9288C65.0447 33.9288 63.7954 32.285 63.7954 29.1288V27.1562C63.7954 24.263 64.7817 22.8165 68.5954 21.6987L75.631 19.726V31.5617Z" fill="#016197"/>
<path d="M96.4835 0.526252C91.2317 0.919842 87.738 3.48514 87.738 9.13994V27.9826C87.738 34.2949 91.6833 37.7798 97.4696 37.7798C97.4696 37.7798 102.576 37.7531 103.979 37.7798C103.958 40.3506 104.37 42.113 100.81 43.426C97.251 44.739 89.9375 42.9161 89.9375 42.9161L89.5598 47.1512C94.1733 47.9003 101.791 48.6509 105.344 45.9266C108.897 43.2022 109.223 40.7964 109.174 37.5348L109.23 3.0397C105.257 0.767706 101.735 0.132663 96.4835 0.526252ZM97.5353 5.32613C99.9241 5.06274 101.95 5.26977 103.979 6.12385V33.0456H98.7188C94.9709 33.0456 92.9329 31.2046 92.9329 27.5224V9.86288C92.9329 6.70671 93.7873 5.73938 97.5353 5.32613Z" fill="#016197"/>
</g>
<g clip-path="url(#clip1_4849_46713)">
<rect x="125.23" y="16" width="57" height="16" rx="2" fill="#6ACDF6"/>
<path d="M137.416 24.6348C137.416 25.5996 137.23 26.4062 136.859 27.0547C136.492 27.6992 135.959 28.1855 135.26 28.5137C134.561 28.8379 133.719 29 132.734 29H130.309V20.4336H132.998C133.896 20.4336 134.676 20.5938 135.336 20.9141C135.996 21.2305 136.508 21.7012 136.871 22.3262C137.234 22.9473 137.416 23.7168 137.416 24.6348ZM135.529 24.6816C135.529 24.0488 135.436 23.5293 135.248 23.123C135.064 22.7129 134.791 22.4102 134.428 22.2148C134.068 22.0195 133.623 21.9219 133.092 21.9219H132.125V27.5H132.904C133.791 27.5 134.449 27.2637 134.879 26.791C135.312 26.3184 135.529 25.6152 135.529 24.6816ZM146.967 24.7051C146.967 25.3652 146.885 25.9668 146.721 26.5098C146.557 27.0488 146.307 27.5137 145.971 27.9043C145.639 28.2949 145.217 28.5957 144.705 28.8066C144.193 29.0137 143.588 29.1172 142.889 29.1172C142.189 29.1172 141.584 29.0137 141.072 28.8066C140.561 28.5957 140.137 28.2949 139.801 27.9043C139.469 27.5137 139.221 27.0469 139.057 26.5039C138.893 25.9609 138.811 25.3574 138.811 24.6934C138.811 23.8066 138.955 23.0352 139.244 22.3789C139.537 21.7188 139.986 21.207 140.592 20.8438C141.197 20.4805 141.967 20.2988 142.9 20.2988C143.83 20.2988 144.594 20.4805 145.191 20.8438C145.793 21.207 146.238 21.7188 146.527 22.3789C146.82 23.0391 146.967 23.8145 146.967 24.7051ZM140.715 24.7051C140.715 25.3027 140.789 25.8184 140.938 26.252C141.09 26.6816 141.326 27.0137 141.646 27.248C141.967 27.4785 142.381 27.5938 142.889 27.5938C143.404 27.5938 143.822 27.4785 144.143 27.248C144.463 27.0137 144.695 26.6816 144.84 26.252C144.988 25.8184 145.062 25.3027 145.062 24.7051C145.062 23.8066 144.895 23.0996 144.559 22.584C144.223 22.0684 143.67 21.8105 142.9 21.8105C142.389 21.8105 141.971 21.9277 141.646 22.1621C141.326 22.3926 141.09 22.7246 140.938 23.1582C140.789 23.5879 140.715 24.1035 140.715 24.7051ZM152.381 21.8223C152.033 21.8223 151.725 21.8906 151.455 22.0273C151.189 22.1602 150.965 22.3535 150.781 22.6074C150.602 22.8613 150.465 23.168 150.371 23.5273C150.277 23.8867 150.23 24.291 150.23 24.7402C150.23 25.3457 150.305 25.8633 150.453 26.293C150.605 26.7188 150.84 27.0449 151.156 27.2715C151.473 27.4941 151.881 27.6055 152.381 27.6055C152.729 27.6055 153.076 27.5664 153.424 27.4883C153.775 27.4102 154.156 27.2988 154.566 27.1543V28.6777C154.188 28.834 153.814 28.9453 153.447 29.0117C153.08 29.082 152.668 29.1172 152.211 29.1172C151.328 29.1172 150.602 28.9355 150.031 28.5723C149.465 28.2051 149.045 27.6934 148.771 27.0371C148.498 26.377 148.361 25.6074 148.361 24.7285C148.361 24.0801 148.449 23.4863 148.625 22.9473C148.801 22.4082 149.059 21.9414 149.398 21.5469C149.738 21.1523 150.158 20.8477 150.658 20.6328C151.158 20.418 151.732 20.3105 152.381 20.3105C152.807 20.3105 153.232 20.3652 153.658 20.4746C154.088 20.5801 154.498 20.7266 154.889 20.9141L154.303 22.3906C153.982 22.2383 153.66 22.1055 153.336 21.9922C153.012 21.8789 152.693 21.8223 152.381 21.8223ZM161.451 26.6211C161.451 27.1289 161.328 27.5703 161.082 27.9453C160.836 28.3203 160.477 28.6094 160.004 28.8125C159.535 29.0156 158.965 29.1172 158.293 29.1172C157.996 29.1172 157.705 29.0977 157.42 29.0586C157.139 29.0195 156.867 28.9629 156.605 28.8887C156.348 28.8105 156.102 28.7148 155.867 28.6016V26.9141C156.273 27.0938 156.695 27.2559 157.133 27.4004C157.57 27.5449 158.004 27.6172 158.434 27.6172C158.73 27.6172 158.969 27.5781 159.148 27.5C159.332 27.4219 159.465 27.3145 159.547 27.1777C159.629 27.041 159.67 26.8848 159.67 26.709C159.67 26.4941 159.598 26.3105 159.453 26.1582C159.309 26.0059 159.109 25.8633 158.855 25.7305C158.605 25.5977 158.322 25.4551 158.006 25.3027C157.807 25.209 157.59 25.0957 157.355 24.9629C157.121 24.8262 156.898 24.6602 156.688 24.4648C156.477 24.2695 156.303 24.0332 156.166 23.7559C156.033 23.4746 155.967 23.1387 155.967 22.748C155.967 22.2363 156.084 21.7988 156.318 21.4355C156.553 21.0723 156.887 20.7949 157.32 20.6035C157.758 20.4082 158.273 20.3105 158.867 20.3105C159.312 20.3105 159.736 20.3633 160.139 20.4688C160.545 20.5703 160.969 20.7188 161.41 20.9141L160.824 22.3262C160.43 22.166 160.076 22.043 159.764 21.957C159.451 21.8672 159.133 21.8223 158.809 21.8223C158.582 21.8223 158.389 21.8594 158.229 21.9336C158.068 22.0039 157.947 22.1055 157.865 22.2383C157.783 22.3672 157.742 22.5176 157.742 22.6895C157.742 22.8926 157.801 23.0645 157.918 23.2051C158.039 23.3418 158.219 23.4746 158.457 23.6035C158.699 23.7324 159 23.8828 159.359 24.0547C159.797 24.2617 160.17 24.4785 160.479 24.7051C160.791 24.9277 161.031 25.1914 161.199 25.4961C161.367 25.7969 161.451 26.1719 161.451 26.6211Z" fill="#016197"/>
<rect width="16" height="16" transform="translate(166.23 16)" fill="#016197"/>
<path d="M175.688 29H173.877V24.043C173.877 23.9062 173.879 23.7383 173.883 23.5391C173.887 23.3359 173.893 23.1289 173.9 22.918C173.908 22.7031 173.916 22.5098 173.924 22.3379C173.881 22.3887 173.793 22.4766 173.66 22.6016C173.531 22.7227 173.41 22.832 173.297 22.9297L172.312 23.7207L171.439 22.6309L174.199 20.4336H175.688V29Z" fill="#6ACDF6"/>
</g>
<defs>
<clipPath id="clip0_4849_46713">
<rect width="109.23" height="48" fill="white"/>
</clipPath>
<clipPath id="clip1_4849_46713">
<rect x="125.23" y="16" width="57" height="16" rx="2" fill="white"/>
</clipPath>
</defs>
</svg>
