<svg width="234" height="42" viewBox="0 0 234 42" fill="none" xmlns="http://www.w3.org/2000/svg">
<path d="M15.8127 41.5271H28.8174C30.6796 41.5271 35.1251 41.4594 35.1251 41.4594C35.7181 39.9937 37.7552 31.4362 27.9239 31.4362H17.6567" fill="url(#paint0_linear_2373_13)"/>
<path d="M12.5486 0.00108758C12.5486 0.00108758 11.5612 4.4452 11.179 6.31368L5.61724 33.5047C4.89784 37.0218 8.02353 41.5303 14.8851 41.5303C15.2819 41.5303 15.5216 41.5309 15.6737 41.5319L15.6746 41.527L18.2997 41.5237C20.03 41.5218 20.9105 41.5134 20.7926 41.4998C19.7477 41.3799 18.7673 40.9295 18.0442 40.2372C17.7976 40.0011 17.4267 39.5202 17.2631 39.2244C16.8334 38.4476 16.6323 37.5098 16.688 36.5532C16.8038 35.9855 16.8906 35.5567 16.9673 35.1818L21.9291 10.3993C22.9151 4.4933 17.6906 -0.085562 12.5486 0.00108758ZM15.6737 41.5319L15.6721 41.5405C15.6721 41.5405 16.15 41.5347 15.6737 41.5319Z" fill="url(#paint1_linear_2373_13)"/>
<path d="M146.486 13.6228H142.416C143.721 19.2053 146.386 30.6207 146.611 31.6224C144.545 34.4397 142.322 35.7232 141.227 36.0049C141.425 36.4432 141.822 37.6077 142.322 38.5092C149.679 37.0066 157.025 21.48 160.259 13.6228H156.44C155.094 17.0975 151.682 24.6104 149.053 28.6486L146.486 13.6228Z" fill="#333333"/>
<path fill-rule="evenodd" clip-rule="evenodd" d="M123.509 17.442L124.104 14.5621C125.158 14.1343 128.142 13.2786 131.648 13.2786C135.06 13.2786 137.625 14.1184 138.191 17.0038C138.276 17.442 138.316 18.162 138.128 19.3202C137.243 24.7742 135.498 32.4991 135.498 32.4991H132.243L132.525 31.2469C131.345 31.8 128.33 32.906 125.7 32.906C122.413 32.906 119.596 32.2173 119.596 28.5861C119.596 24.9549 122.695 21.5708 128.142 21.4489C132.337 21.355 134.371 21.4489 134.371 21.4489L134.528 18.5689C134.528 17.442 133.695 16.1586 130.239 16.1586C127.986 16.1586 125.356 16.8159 123.509 17.442ZM133.871 23.8593C133.871 23.8593 131.022 23.769 128.424 23.9219C125.826 24.0747 123.384 25.2679 123.384 27.9913C123.384 31.6539 130.271 29.5878 133.151 28.5548C133.301 27.6533 133.725 25.0279 133.871 23.8593Z" fill="#333333"/>
<path fill-rule="evenodd" clip-rule="evenodd" d="M96.8069 38.2273L101.753 13.9983C102.41 13.7688 104.721 13.3096 108.702 13.3096C113.68 13.3096 117.405 14.9687 117.53 18.8817C117.691 23.9216 115.589 32.6553 105.228 32.6553C104.176 32.6553 102.16 32.4362 101.315 32.2796L100.031 38.2273H96.8069ZM104.476 16.5652L102.035 29.2119C102.723 29.6501 104.232 29.9632 106.261 29.9632C108.796 29.9632 113.68 28.2102 113.68 20.0712C113.68 18.2243 112.96 14.8122 104.476 16.5652Z" fill="#333333"/>
<path d="M85.7257 10.4297L89.4509 9.58453L88.5743 13.7166H97.0889L96.4942 16.3774H87.9796C87.2596 19.4556 85.8196 25.9188 85.8196 27.1459C85.8196 29.1806 87.2283 29.9319 89.7013 29.9319C91.6797 29.9319 93.5725 29.5771 94.3342 29.3371L93.7081 32.2484C92.2682 32.5927 90.3587 32.9058 86.9153 32.6866C81.9441 32.3703 81.938 28.3354 82.4388 26.4259L84.3797 16.3774H79.4963L79.9972 13.7166H85.037L85.7257 10.4297Z" fill="#333333"/>
<path fill-rule="evenodd" clip-rule="evenodd" d="M73.5171 32.1231L74.1432 29.3058C73.2354 29.5771 70.6622 30.1197 67.632 30.1197C63.8443 30.1197 62.1226 28.8049 61.8408 26.332C61.7407 25.6808 61.8826 24.5372 61.966 24.0468H76.2092C76.4805 23.212 77.0231 21.1856 77.0231 19.7582C77.0231 17.9739 76.5222 13.3096 69.5102 13.3096C62.4982 13.3096 58.2096 19.8834 58.2096 26.332C58.2096 32.7805 64.7521 32.8118 66.9746 32.8118C68.7527 32.8118 72.0771 32.3527 73.5171 32.1231ZM73.2041 21.5738H62.4982C63.0721 19.6747 65.1653 15.8765 68.9468 15.8765C73.6736 15.8765 73.6736 19.7269 73.2041 21.5738Z" fill="#333333"/>
<path d="M46.0951 25.0173C47.5977 18.5375 49.5072 9.49072 49.5072 9.49072C48.7873 9.64724 47.0029 10.0229 45.7821 10.3046C45.156 12.834 43.1004 21.9704 42.1509 26.739C41.6148 29.4311 42.4326 31.9292 45.8134 32.405C49.1942 32.8808 53.2741 32.3528 54.8915 32.0293C54.9541 31.5911 55.1544 30.4266 55.4549 29.2746C53.5767 29.7254 51.4376 29.8381 50.6029 29.8381C45.3188 29.8381 45.362 28.179 46.0951 25.0173Z" fill="#333333"/>
<g clip-path="url(#clip0_2373_13)">
<rect x="176.259" y="12.7703" width="57" height="16" rx="2" fill="#EE8037"/>
<path d="M188.445 21.4051C188.445 22.3699 188.259 23.1766 187.888 23.825C187.521 24.4695 186.988 24.9559 186.289 25.284C185.59 25.6082 184.748 25.7703 183.763 25.7703H181.338V17.2039H184.027C184.925 17.2039 185.705 17.3641 186.365 17.6844C187.025 18.0008 187.537 18.4715 187.9 19.0965C188.263 19.7176 188.445 20.4871 188.445 21.4051ZM186.558 21.452C186.558 20.8192 186.465 20.2996 186.277 19.8934C186.093 19.4832 185.82 19.1805 185.457 18.9852C185.097 18.7899 184.652 18.6922 184.121 18.6922H183.154V24.2703H183.933C184.82 24.2703 185.478 24.034 185.908 23.5613C186.342 23.0887 186.558 22.3856 186.558 21.452ZM197.996 21.4754C197.996 22.1356 197.914 22.7371 197.75 23.2801C197.586 23.8192 197.336 24.284 197 24.6746C196.668 25.0652 196.246 25.366 195.734 25.577C195.222 25.784 194.617 25.8875 193.918 25.8875C193.218 25.8875 192.613 25.784 192.101 25.577C191.59 25.366 191.166 25.0652 190.83 24.6746C190.498 24.284 190.25 23.8172 190.086 23.2742C189.922 22.7313 189.84 22.1277 189.84 21.4637C189.84 20.577 189.984 19.8055 190.273 19.1492C190.566 18.4891 191.015 17.9774 191.621 17.6141C192.226 17.2508 192.996 17.0692 193.929 17.0692C194.859 17.0692 195.623 17.2508 196.22 17.6141C196.822 17.9774 197.267 18.4891 197.556 19.1492C197.849 19.8094 197.996 20.5848 197.996 21.4754ZM191.744 21.4754C191.744 22.0731 191.818 22.5887 191.967 23.0223C192.119 23.452 192.355 23.784 192.675 24.0184C192.996 24.2488 193.41 24.3641 193.918 24.3641C194.433 24.3641 194.851 24.2488 195.172 24.0184C195.492 23.784 195.724 23.452 195.869 23.0223C196.017 22.5887 196.092 22.0731 196.092 21.4754C196.092 20.577 195.924 19.8699 195.588 19.3543C195.252 18.8387 194.699 18.5809 193.929 18.5809C193.418 18.5809 193 18.6981 192.675 18.9324C192.355 19.1629 192.119 19.4949 191.967 19.9285C191.818 20.3582 191.744 20.8738 191.744 21.4754ZM203.41 18.5926C203.062 18.5926 202.754 18.6609 202.484 18.7977C202.218 18.9305 201.994 19.1238 201.81 19.3777C201.631 19.6317 201.494 19.9383 201.4 20.2977C201.306 20.657 201.259 21.0613 201.259 21.5106C201.259 22.116 201.334 22.6336 201.482 23.0633C201.634 23.4891 201.869 23.8152 202.185 24.0418C202.502 24.2645 202.91 24.3758 203.41 24.3758C203.758 24.3758 204.105 24.3367 204.453 24.2586C204.804 24.1805 205.185 24.0692 205.595 23.9246V25.4481C205.217 25.6043 204.843 25.7156 204.476 25.782C204.109 25.8524 203.697 25.8875 203.24 25.8875C202.357 25.8875 201.631 25.7059 201.06 25.3426C200.494 24.9754 200.074 24.4637 199.8 23.8074C199.527 23.1473 199.39 22.3777 199.39 21.4988C199.39 20.8504 199.478 20.2567 199.654 19.7176C199.83 19.1785 200.088 18.7117 200.427 18.3172C200.767 17.9227 201.187 17.618 201.687 17.4031C202.187 17.1883 202.761 17.0809 203.41 17.0809C203.836 17.0809 204.261 17.1356 204.687 17.2449C205.117 17.3504 205.527 17.4969 205.918 17.6844L205.332 19.1609C205.011 19.0086 204.689 18.8758 204.365 18.7625C204.041 18.6492 203.722 18.5926 203.41 18.5926ZM212.48 23.3914C212.48 23.8992 212.357 24.3406 212.111 24.7156C211.865 25.0906 211.506 25.3797 211.033 25.5828C210.564 25.7859 209.994 25.8875 209.322 25.8875C209.025 25.8875 208.734 25.868 208.449 25.8289C208.168 25.7899 207.896 25.7332 207.634 25.659C207.377 25.5809 207.131 25.4852 206.896 25.3719V23.6844C207.302 23.8641 207.724 24.0262 208.162 24.1707C208.599 24.3152 209.033 24.3875 209.463 24.3875C209.759 24.3875 209.998 24.3484 210.177 24.2703C210.361 24.1922 210.494 24.0848 210.576 23.9481C210.658 23.8113 210.699 23.6551 210.699 23.4793C210.699 23.2645 210.627 23.0809 210.482 22.9285C210.338 22.7762 210.138 22.6336 209.884 22.5008C209.634 22.368 209.351 22.2254 209.035 22.0731C208.836 21.9793 208.619 21.866 208.384 21.7332C208.15 21.5965 207.927 21.4305 207.717 21.2352C207.506 21.0399 207.332 20.8035 207.195 20.5262C207.062 20.2449 206.996 19.909 206.996 19.5184C206.996 19.0067 207.113 18.5692 207.347 18.2059C207.582 17.8426 207.916 17.5652 208.349 17.3738C208.787 17.1785 209.302 17.0809 209.896 17.0809C210.342 17.0809 210.765 17.1336 211.168 17.2391C211.574 17.3406 211.998 17.4891 212.439 17.6844L211.853 19.0965C211.459 18.9363 211.105 18.8133 210.793 18.7274C210.48 18.6375 210.162 18.5926 209.838 18.5926C209.611 18.5926 209.418 18.6297 209.258 18.7039C209.097 18.7742 208.976 18.8758 208.894 19.0086C208.812 19.1375 208.771 19.2879 208.771 19.4598C208.771 19.6629 208.83 19.8348 208.947 19.9754C209.068 20.1121 209.248 20.2449 209.486 20.3738C209.728 20.5027 210.029 20.6531 210.388 20.825C210.826 21.032 211.199 21.2488 211.508 21.4754C211.82 21.6981 212.06 21.9617 212.228 22.2664C212.396 22.5672 212.48 22.9422 212.48 23.3914Z" fill="#63005C"/>
<rect width="16" height="16" transform="translate(217.259 12.7703)" fill="#63005C"/>
<path d="M226.717 25.7703H224.906V20.8133C224.906 20.6766 224.908 20.5086 224.912 20.3094C224.916 20.1063 224.922 19.8992 224.929 19.6883C224.937 19.4734 224.945 19.2801 224.953 19.1082C224.91 19.159 224.822 19.2469 224.689 19.3719C224.56 19.493 224.439 19.6024 224.326 19.7L223.342 20.491L222.468 19.4012L225.228 17.2039H226.717V25.7703Z" fill="#EE8037"/>
</g>
<defs>
<linearGradient id="paint0_linear_2373_13" x1="9.9006" y1="36.6454" x2="39.0649" y2="32.3014" gradientUnits="userSpaceOnUse">
<stop stop-color="#AA0000"/>
<stop offset="1" stop-color="#FFCC00"/>
</linearGradient>
<linearGradient id="paint1_linear_2373_13" x1="19.7458" y1="-2.81936" x2="19.8537" y2="49.8465" gradientUnits="userSpaceOnUse">
<stop stop-color="#FF0000"/>
<stop offset="1" stop-color="#FFCC00"/>
</linearGradient>
<clipPath id="clip0_2373_13">
<rect x="176.259" y="12.7703" width="57" height="16" rx="2" fill="white"/>
</clipPath>
</defs>
</svg>
